<?xml version="1.0" encoding="utf-8" standalone="yes"?>
<!DOCTYPE svg PUBLIC "-//W3C//DTD SVG 1.1//EN" "http://www.w3.org/Graphics/SVG/1.1/DTD/svg11.dtd">
<svg xmlns="http://www.w3.org/2000/svg" xmlns:xlink="http://www.w3.org/1999/xlink" xmlns:dc="http://purl.org/dc/elements/1.1/" xmlns:cc="http://web.resource.org/cc/" xmlns:rdf="http://www.w3.org/1999/02/22-rdf-syntax-ns#" xmlns:sodipodi="http://sodipodi.sourceforge.net/DTD/sodipodi-0.dtd" xmlns:inkscape="http://www.inkscape.org/namespaces/inkscape" version="1.1" baseProfile="full" width="280px" height="280px" viewBox="0 0 280 280" preserveAspectRatio="xMidYMid meet" id="svg_document" style="zoom: 1;"><!-- Created with macSVG - https://macsvg.org/ - https://github.com/dsward2/macsvg/ --><title id="svg_document_title">Untitled.svg</title><defs id="svg_document_defs"></defs><g id="main_group"><rect id="background_rect" fill="#303337" x="0px" y="0px" width="280px" height="280px"></rect></g><svg xmlns="http://www.w3.org/2000/svg" viewBox="0 0 323.18 356.59" id="svg1"><defs><style>.cls-1{fill:#ffe632;}</style></defs><title>Yellow</title><g id="Layer_2" data-name="Layer 2"><g id="Layer_1-2" data-name="Layer 1"><path class="cls-1" d="M318.18,87.58l-5,2.44L161.59,164,62,115.43v58.62L158.09,221v122.8L62,296.86l-5-2.44L52,292V99.42l109.55,53.49L306.77,82l5.71-2.78,5.69-2.78L161.59,0,0,78.89V277.7l52,25.41L62,308l99.55,48.6,161.59-78.9V85.13ZM213.57,82l-47,23V58.92Zm-57-23.11v46l-47.2-23ZM313.18,271.45,214,319.88V197.08l99.2-48.44Z"></path></g></g></svg></svg>